<svg width="21" height="20" viewBox="0 0 21 20"  xmlns="http://www.w3.org/2000/svg">
<path d="M20.8509 9.1546C20.6648 6.39176 19.2695 3.81175 17.0601 2.0993C14.8509 0.386682 11.967 -0.32109 9.17625 0.135523C4.19944 0.980455 0.548225 5.50121 0.897067 10.4787C1.05994 12.8762 2.08309 15.0909 3.80408 16.7806C3.36217 17.4199 2.96686 17.8309 1.92038 18.6529C1.71111 18.8128 1.618 19.0638 1.68775 19.315C1.73431 19.5662 1.92038 19.7716 2.15283 19.8401C2.50161 19.9543 3.01327 20 3.59467 20C4.82724 20 6.38536 19.7261 7.59472 19.1095C9.19944 19.6576 10.9203 19.7945 12.618 19.4977C17.5949 18.63 21.1996 14.0863 20.8507 9.15445L20.8509 9.1546ZM6.22276 11.5976C5.31577 11.5976 4.59487 10.8898 4.59487 9.99937C4.59487 9.10889 5.31577 8.40112 6.22276 8.40112C7.12975 8.40112 7.85065 9.10889 7.85065 9.99937C7.85065 10.8898 7.12975 11.5976 6.22276 11.5976ZM10.874 11.5976C9.967 11.5976 9.2461 10.8898 9.2461 9.99937C9.2461 9.10889 9.967 8.40112 10.874 8.40112C11.781 8.40112 12.5019 9.10889 12.5019 9.99937C12.5019 10.8898 11.781 11.5976 10.874 11.5976ZM15.5252 11.5976C14.6182 11.5976 13.8973 10.8898 13.8973 9.99937C13.8973 9.10889 14.6182 8.40112 15.5252 8.40112C16.4322 8.40112 17.1531 9.10889 17.1531 9.99937C17.1531 10.8898 16.4322 11.5976 15.5252 11.5976Z" />
</svg>
