<svg width="21" height="20" viewBox="0 0 21 20"  xmlns="http://www.w3.org/2000/svg">
<path fill-rule="evenodd" clip-rule="evenodd" d="M18.9575 13.0613H18.5379C19.6941 13.0613 20.625 13.9747 20.625 15.1015V15.511C20.625 15.9648 20.2518 16.3266 19.7912 16.3266H1.4589C0.997929 16.3266 0.625027 15.9613 0.625027 15.511V15.1015C0.625027 13.9752 1.5595 13.0613 2.7122 13.0613H2.2925C2.75057 13.0613 3.12496 12.6955 3.12496 12.2442V7.34691C3.12496 3.28752 6.48285 0 10.6251 0C14.7684 0 18.1253 3.28927 18.1253 7.34691V12.2442C18.1253 12.6983 18.4979 13.0613 18.9578 13.0613H18.9575ZM7.70804 17.1429H13.5414C13.5414 18.7208 12.2354 20 10.6247 20C9.01395 20 7.70804 18.7208 7.70804 17.1429Z" />
</svg>
